<svg id="Capa_1" enable-background="new 0 0 512 512" height="512" viewBox="0 0 512 512" width="512" xmlns="http://www.w3.org/2000/svg"><path d="m374.75 172.129c0 8.284 6.716 15 15 15h39.167c8.284 0 15-6.716 15-15s-6.716-15-15-15h-39.167c-8.284 0-15 6.716-15 15z"/><path d="m363.139 113.726c3.285 0 6.593-1.075 9.358-3.286l30.589-24.461c6.47-5.174 7.521-14.613 2.347-21.083s-14.612-7.521-21.083-2.347l-30.589 24.461c-6.47 5.174-7.521 14.613-2.347 21.083 2.963 3.705 7.323 5.633 11.725 5.633z"/><path d="m292.128 67.45c1.524.489 3.069.722 4.588.722 6.343 0 12.236-4.056 14.279-10.419l11.971-37.292c2.532-7.888-1.81-16.334-9.698-18.867-7.886-2.532-16.334 1.811-18.867 9.698l-11.971 37.292c-2.532 7.887 1.81 16.334 9.698 18.866z"/><path d="m201.005 57.752c2.043 6.364 7.935 10.419 14.279 10.419 1.519 0 3.064-.232 4.588-.722 7.888-2.532 12.23-10.979 9.698-18.867l-11.971-37.292c-2.532-7.888-10.98-12.232-18.867-9.698-7.888 2.532-12.23 10.979-9.698 18.867z"/><path d="m108.914 85.979 30.589 24.461c2.766 2.211 6.073 3.286 9.358 3.286 4.401 0 8.762-1.928 11.725-5.632 5.174-6.47 4.123-15.909-2.347-21.083l-30.589-24.462c-6.471-5.174-15.91-4.123-21.083 2.347-5.173 6.469-4.123 15.909 2.347 21.083z"/><path d="m83.083 187.129h39.167c8.284 0 15-6.716 15-15s-6.716-15-15-15h-39.167c-8.284 0-15 6.716-15 15s6.716 15 15 15z"/><path d="m502 249.525h-492c-5.523 0-10 4.477-10 10 0 29.823 24.177 54 54 54h87.038c-12.449 3.559-23.415 11.458-30.691 22.564l-35.72 54.52h-74.627v120.52h271.596c23.05 0 45.008-9.817 60.379-26.994l108.954-119.985c12.647-14.133 9.46-36.259-6.661-46.249-3.971-2.461-8.345-3.898-12.785-4.377h36.517c29.823 0 54-24.177 54-54 0-5.522-4.477-9.999-10-9.999zm-103.395 70.942-112.376 94.346c-7.297 6.125-16.519 9.483-26.047 9.483h-44.432c-15.588 0-28.224-12.637-28.224-28.225 0-15.588 12.637-28.225 28.224-28.225h41.882c15.588 0 28.224-12.636 28.224-28.224 0-11.779-7.218-21.868-17.47-26.098h146.578c-5.885.631-11.601 2.949-16.359 6.943z"/></svg>